<svg id="approval_icon" data-name="approval icon" xmlns="http://www.w3.org/2000/svg" width="18.465" height="18.465" viewBox="0 0 18.465 18.465">
	<g id="Group_1023" data-name="Group 1023" transform="translate(0 0)">
		<g id="Group_1022" data-name="Group 1022" transform="translate(0 0)">
			<path id="Path_1286" data-name="Path 1286" d="M15.225,6.628a2.686,2.686,0,0,1-2.031,1.053h-.078a2.868,2.868,0,0,1-2.047-.9.69.69,0,0,1-.1-.1,1.386,1.386,0,0,0-1.029-.5,1.137,1.137,0,0,0-.866.462A.769.769,0,0,1,7.857,5.7a2.686,2.686,0,0,1,2.03-1.053,2.892,2.892,0,0,1,2.126.9.69.69,0,0,1,.1.1,1.36,1.36,0,0,0,1.029.5,1.139,1.139,0,0,0,.866-.461.769.769,0,0,1,1.213.946m0,6.155a2.686,2.686,0,0,1-2.031,1.053h-.078a2.868,2.868,0,0,1-2.047-.9.69.69,0,0,1-.1-.1,1.364,1.364,0,0,0-1.029-.5,1.137,1.137,0,0,0-.866.462.769.769,0,0,1-1.213-.947A2.686,2.686,0,0,1,9.888,10.8a2.886,2.886,0,0,1,2.126.9.69.69,0,0,1,.1.1,1.381,1.381,0,0,0,1.029.5,1.139,1.139,0,0,0,.866-.461.769.769,0,0,1,1.213.946M4.616,7.694A1.539,1.539,0,1,1,6.155,6.155,1.539,1.539,0,0,1,4.616,7.694m0,6.155A1.539,1.539,0,1,1,6.155,12.31a1.539,1.539,0,0,1-1.539,1.539M17.7,0H.769A.769.769,0,0,0,0,.77V17.7a.769.769,0,0,0,.769.769H17.7a.769.769,0,0,0,.769-.769V.77A.769.769,0,0,0,17.7,0" transform="translate(0 0)" fill="#026cd1" fill-rule="evenodd" />
		</g>
	</g>
</svg>
