<svg xmlns="http://www.w3.org/2000/svg" width="17.988" height="17.987" viewBox="0 0 17.988 17.987">
  <g id="audit_icon" transform="translate(0 0)">
    <path id="Path_1287" data-name="Path 1287" d="M14.59,12.209a.9.9,0,0,0-.9.9v5.18H3.8V4.8H7.4A.9.9,0,0,0,7.4,3H3.8A1.8,1.8,0,0,0,2,4.8v13.49a1.8,1.8,0,0,0,1.8,1.8h9.892a1.8,1.8,0,0,0,1.8-1.8v-5.18A.9.9,0,0,0,14.59,12.209Z" transform="translate(-2 -2.1)" fill="#026cd1"/>
    <path id="Path_1288" data-name="Path 1288" d="M20.646,14.285l-2.995-4.6a4.5,4.5,0,1,0-3.156,1.3,4.406,4.406,0,0,0,1.655-.324l2.986,4.6a.9.9,0,0,0,1.511-.989ZM11.8,6.5a2.7,2.7,0,1,1,2.7,2.7A2.7,2.7,0,0,1,11.8,6.5Z" transform="translate(-2.805 -1.999)" fill="#026cd1"/>
    <path id="Path_1289" data-name="Path 1289" d="M11.4,16H6.9a.9.9,0,0,0,0,1.8h4.5a.9.9,0,0,0,0-1.8Z" transform="translate(-2.403 -3.409)" fill="#026cd1"/>
    <path id="Path_1290" data-name="Path 1290" d="M11.4,12H6.9a.9.9,0,0,0,0,1.8h4.5a.9.9,0,0,0,0-1.8Z" transform="translate(-2.403 -3.006)" fill="#026cd1"/>
  </g>
</svg>
