<svg xmlns="http://www.w3.org/2000/svg" width="21.92" height="14.613" viewBox="0 0 21.92 14.613">
  <path id="backup_icon" d="M18.771,21.884c0-.084.006-.169.006-.254a5.635,5.635,0,0,0-10.732-2.4,3.072,3.072,0,0,0-1.788-.568,2.967,2.967,0,0,0-3.016,2.915,2.824,2.824,0,0,0,.087.693A4.254,4.254,0,0,0,0,26.454a4.133,4.133,0,0,0,4.186,4.159H17.914a4.155,4.155,0,0,0,4.006-4.36A4.39,4.39,0,0,0,18.771,21.884ZM10.96,27.869v.009a3.183,3.183,0,0,1-2.078-.768.219.219,0,0,1-.008-.318l.415-.42a.222.222,0,0,1,.3-.009,2.158,2.158,0,0,0,1.369.488v-.005A2.17,2.17,0,1,0,8.841,24.22h.772a.061.061,0,0,1,.049.1L8.286,25.658a.071.071,0,0,1-.1,0L6.813,24.322a.061.061,0,0,1,.049-.1H7.8a3.2,3.2,0,0,1,6.358.5A3.239,3.239,0,0,1,10.96,27.869Z" transform="translate(0 -16)" fill="#026cd1"/>
</svg>
