<svg xmlns="http://www.w3.org/2000/svg" width="18" height="21.5" viewBox="0 0 18 21.5">
  <path id="_Color" data-name=" ↳Color" d="M9,21.5a2.231,2.231,0,0,1-2.25-2.206h4.5A2.231,2.231,0,0,1,9,21.5Zm9-3.308H0v-1.1l2.25-2.2V9.371A7.7,7.7,0,0,1,3.574,4.9,6.225,6.225,0,0,1,7.312,2.4V1.654a1.688,1.688,0,0,1,3.376,0V2.4a6.217,6.217,0,0,1,3.742,2.5A7.708,7.708,0,0,1,15.75,9.371v5.513l2.25,2.2v1.1ZM9,4.41A4.218,4.218,0,0,0,5.7,5.865,5.342,5.342,0,0,0,4.5,9.371v6.616h9V9.371a5.343,5.343,0,0,0-1.2-3.506A4.217,4.217,0,0,0,9,4.41Z" fill="#fcfcfc"/>
</svg>
