<svg id="bell_icon" xmlns="http://www.w3.org/2000/svg" width="20.097" height="20.269" viewBox="0 0 20.097 20.269">
  <path id="Path_1285" data-name="Path 1285" d="M21.193,17.2H20.24V10.107a8.108,8.108,0,0,0-16.215,0V17.2h-.9a1.013,1.013,0,1,0,0,2.027H9.093a3.04,3.04,0,0,0,6.081,0h6.02a1.013,1.013,0,1,0,0-2.027Zm-9.06,3.04a1.013,1.013,0,0,1-1.013-1.013h2.027A1.013,1.013,0,0,1,12.133,20.242ZM14.16,17.2H6.052V10.107a6.081,6.081,0,0,1,12.161,0V17.2Z" transform="translate(-2.11 -2)" fill="#026cd1"/>
</svg>
