<svg id="Group_723" data-name="Group 723" xmlns="http://www.w3.org/2000/svg" width="14.439" height="15.49" viewBox="0 0 14.439 15.49">
  <g id="Group_714" data-name="Group 714" transform="translate(0 2.326)">
    <g id="Group_713" data-name="Group 713">
      <g id="Group_712" data-name="Group 712">
        <path id="Path_1213" data-name="Path 1213" d="M306.282,175.1l-1.213-.044-.263,7.179,1.213.044Z" transform="translate(-296.111 -172.085)" fill="#026cd1"/>
        <rect id="Rectangle_307" data-name="Rectangle 307" width="1.213" height="7.179" transform="translate(6.613 2.993)" fill="#026cd1"/>
        <path id="Path_1214" data-name="Path 1214" d="M159.894,182.228l-.263-7.179-1.213.044.263,7.179Z" transform="translate(-154.152 -172.079)" fill="#026cd1"/>
        <path id="Path_1215" data-name="Path 1215" d="M17.379,76.867V78.08h1.264l1,11.4a.607.607,0,0,0,.6.553h8.675a.607.607,0,0,0,.6-.554l1-11.4h1.285V76.867ZM28.37,88.818H20.806L19.861,78.08h9.454Z" transform="translate(-17.379 -76.867)" fill="#026cd1"/>
      </g>
    </g>
  </g>
  <g id="Group_716" data-name="Group 716" transform="translate(4.226)">
    <g id="Group_715" data-name="Group 715" transform="translate(0)">
      <path id="Path_1216" data-name="Path 1216" d="M162.051,0h-3.964a1.012,1.012,0,0,0-1.011,1.011V2.932h1.213V1.213h3.559V2.932h1.213V1.011A1.012,1.012,0,0,0,162.051,0Z" transform="translate(-157.076)" fill="#026cd1"/>
    </g>
  </g>
</svg>
