<svg xmlns="http://www.w3.org/2000/svg" width="14.247" height="14.233" viewBox="0 0 14.247 14.233">
  <g id="Group_960" data-name="Group 960" transform="translate(0)">
    <g id="Group_440" data-name="Group 440" transform="translate(0)">
      <g id="pen">
        <path id="Path_966" data-name="Path 966" d="M16.035,2.2a.679.679,0,0,0-.961,0l-.593.593a2.039,2.039,0,0,0-2.32.4L4.955,10.4,8.8,14.239,16,7.033a2.039,2.039,0,0,0,.4-2.32L17,4.121a.679.679,0,0,0,0-.961Zm-2.9,5.782L8.8,12.317,6.877,10.4l4.336-4.336ZM14.37,6.746l.673-.673a.679.679,0,0,0,0-.961l-.961-.961a.679.679,0,0,0-.961,0l-.673.673Z" transform="translate(-2.948 -2)" fill="#026cd1" fill-rule="evenodd"/>
        <path id="Path_967" data-name="Path 967" d="M2,20.456l1.441-5.284,3.843,3.843Z" transform="translate(-2 -6.223)" fill="#026cd1"/>
      </g>
    </g>
  </g>
</svg>
