<svg xmlns="http://www.w3.org/2000/svg" width="14.211" height="17" viewBox="0 0 14.211 17">
  <g id="Excel" transform="translate(-7.88 -3.159)">
    <path id="Path_77" data-name="Path 77" d="M19.439,11.066H10.531a.589.589,0,0,0-.589.589v5.008a.589.589,0,0,0,.589.589h8.908a.589.589,0,0,0,.589-.589V11.655A.589.589,0,0,0,19.439,11.066Zm-.589,2.5H15.574V12.244H18.85ZM14.4,12.244v1.323H11.12V12.244Zm-3.276,2.5H14.4v1.329H11.12Zm4.454,1.329V14.748H18.85v1.326Zm6.481-8.5a.1.1,0,0,0-.015-.024A.634.634,0,0,0,22,7.469l-.029-.035-.047-.053h0L17.61,3.312l-.038-.032-.041-.032-.053-.029-.047-.024-.062-.018-.047-.015a.507.507,0,0,0-.115,0h-6.97A2.357,2.357,0,0,0,7.88,5.519V17.8a2.357,2.357,0,0,0,2.357,2.357h9.5A2.357,2.357,0,0,0,22.09,17.8V7.8a.607.607,0,0,0-.035-.233ZM17.8,5.106l2.224,2.106H17.8Zm1.938,13.874h-9.5A1.178,1.178,0,0,1,9.058,17.8V5.507a1.178,1.178,0,0,1,1.178-1.178h6.38V7.8a.589.589,0,0,0,.589.589h3.706V17.8a1.178,1.178,0,0,1-1.178,1.178Z" transform="translate(0 0)" fill="#026cd1"/>
  </g>
</svg>
