<svg xmlns="http://www.w3.org/2000/svg" width="22.108" height="12.272" viewBox="0 0 22.108 12.272">
  <g id="Group_1383" data-name="Group 1383" transform="translate(-109.479 -224.157)">
    <g id="Group_1014" data-name="Group 1014" transform="translate(111.655 224.157)">
      <g id="Group_1013" data-name="Group 1013">
        <path id="Path_1270" data-name="Path 1270" d="M229.571,301.487a3.061,3.061,0,0,1-.026.374l.036-.261a2.91,2.91,0,0,1-.116.487q-.014.043-.03.085c-.063.171.106-.241.031-.075a2.66,2.66,0,0,1-.123.237c-.037.064-.078.125-.12.186-.1.149.164-.207.051-.066-.027.035-.056.068-.086.1a2.685,2.685,0,0,1-.354.331l.208-.162a2.828,2.828,0,0,1-.611.358l.252-.105a2.814,2.814,0,0,1-.7.186l.27-.035a2.873,2.873,0,0,1-.7-.006l.261.036a2.9,2.9,0,0,1-.487-.116l-.085-.03c-.171-.063.241.106.075.031a2.654,2.654,0,0,1-.237-.123c-.064-.037-.125-.078-.186-.12-.149-.1.207.164.066.051-.035-.027-.068-.057-.1-.086a2.686,2.686,0,0,1-.331-.354l.162.208a2.831,2.831,0,0,1-.358-.611l.105.252a2.816,2.816,0,0,1-.186-.7l.035.27a2.871,2.871,0,0,1,.006-.7l-.036.261a2.908,2.908,0,0,1,.116-.487q.014-.043.03-.085c.063-.171-.106.241-.031.075a2.66,2.66,0,0,1,.123-.237c.037-.064.078-.125.12-.186.1-.149-.164.207-.051.066.027-.035.056-.068.086-.1A2.689,2.689,0,0,1,227,300.1l-.208.162a2.83,2.83,0,0,1,.611-.358l-.252.105a2.813,2.813,0,0,1,.7-.186l-.27.035a2.871,2.871,0,0,1,.7.006l-.261-.036a2.911,2.911,0,0,1,.487.116l.085.03c.171.063-.241-.106-.075-.031a2.664,2.664,0,0,1,.237.123c.064.037.125.078.186.12.149.1-.207-.164-.066-.051.035.027.068.056.1.086a2.687,2.687,0,0,1,.331.354l-.162-.208a2.832,2.832,0,0,1,.358.611l-.105-.252a2.813,2.813,0,0,1,.186.7l-.035-.27a3.105,3.105,0,0,1,.02.328,1.017,1.017,0,1,0,2.033.015,3.763,3.763,0,0,0-1.1-2.633,3.686,3.686,0,1,0,1.1,2.633,1.017,1.017,0,0,0-2.034-.015Z" transform="translate(-224.233 -297.808)" fill="#026cd1"/>
      </g>
    </g>
    <g id="Group_1016" data-name="Group 1016" transform="translate(109.479 229.555)">
      <g id="Group_1015" data-name="Group 1015">
        <path id="Path_1271" data-name="Path 1271" d="M171.723,462.955a5.876,5.876,0,0,0-2.151-4.539,5.84,5.84,0,0,0-5.13-1.157,5.771,5.771,0,0,0-3.113,1.978,5.97,5.97,0,0,0-1.331,3.7,1.026,1.026,0,0,0,1.009,1.024H170.7a1.017,1.017,0,0,0,.015-2.034h-9.691l1.009,1.024a5.254,5.254,0,0,1,.044-.658l-.036.261a5.055,5.055,0,0,1,.209-.891c.024-.071.05-.142.077-.212.092-.238-.1.224,0-.009a4.831,4.831,0,0,1,.227-.436c.074-.128.156-.252.242-.373.147-.207-.154.193,0-.005.046-.058.094-.114.143-.17a4.88,4.88,0,0,1,.677-.636l-.208.162a5,5,0,0,1,1.116-.646l-.252.105a4.983,4.983,0,0,1,1.233-.325l-.27.035a5.07,5.07,0,0,1,1.269.006l-.261-.036a5.062,5.062,0,0,1,.891.208c.071.024.142.05.212.077.238.092-.224-.1.009,0a4.828,4.828,0,0,1,.436.227c.128.074.252.156.373.242.207.147-.193-.154.005,0,.058.046.114.094.17.143a4.88,4.88,0,0,1,.636.677l-.162-.208a5,5,0,0,1,.646,1.116l-.105-.252a4.985,4.985,0,0,1,.325,1.233l-.035-.27a5.291,5.291,0,0,1,.038.611,1.017,1.017,0,1,0,2.033.015Z" transform="translate(-159.999 -457.09)" fill="#026cd1"/>
      </g>
    </g>
    <g id="Group_1018" data-name="Group 1018" transform="translate(122.731 224.793)">
      <g id="Group_1017" data-name="Group 1017" transform="translate(0 0)">
        <path id="Path_1272" data-name="Path 1272" d="M560.295,384.06h6.823a1.017,1.017,0,1,0,.015-2.033H560.31a1.017,1.017,0,0,0-.015,2.033Z" transform="translate(-559.286 -382.026)" fill="#026cd1"/>
      </g>
    </g>
    <g id="Group_1020" data-name="Group 1020" transform="translate(122.731 229.324)">
      <g id="Group_1019" data-name="Group 1019" transform="translate(0 0)">
        <path id="Path_1273" data-name="Path 1273" d="M560.295,517.779h6.823a1.017,1.017,0,1,0,.015-2.034H560.31a1.017,1.017,0,0,0-.015,2.034Z" transform="translate(-559.286 -515.746)" fill="#026cd1"/>
      </g>
    </g>
    <g id="Group_1021" data-name="Group 1021" transform="translate(122.731 233.76)">
      <g id="Group_1019-2" data-name="Group 1019" transform="translate(0 0)">
        <path id="Path_1273-2" data-name="Path 1273" d="M560.295,517.779h6.823a1.017,1.017,0,1,0,.015-2.034H560.31a1.017,1.017,0,0,0-.015,2.034Z" transform="translate(-559.286 -515.746)" fill="#026cd1"/>
      </g>
    </g>
  </g>
</svg>
