<svg id="preference_icon" xmlns="http://www.w3.org/2000/svg" width="22.51" height="23.56" viewBox="0 0 22.51 23.56">
  <path id="Path_1275" data-name="Path 1275" d="M21.889,66.543A.892.892,0,0,1,21,65.649V57.895a.889.889,0,1,1,1.777,0v7.754A.892.892,0,0,1,21.889,66.543Z" transform="translate(-18.335 -42.983)" fill="#026cd1"/>
  <path id="Path_1276" data-name="Path 1276" d="M21.889,17.157A.892.892,0,0,1,21,16.263V10.895a.889.889,0,1,1,1.777,0v5.368A.892.892,0,0,1,21.889,17.157Z" transform="translate(-18.335 -10)" fill="#026cd1"/>
  <path id="Path_1277" data-name="Path 1277" d="M47.889,79.175A.892.892,0,0,1,47,78.28V75.895a.889.889,0,1,1,1.777,0V78.28A.892.892,0,0,1,47.889,79.175Z" transform="translate(-36.634 -55.615)" fill="#026cd1"/>
  <path id="Path_1278" data-name="Path 1278" d="M47.889,22.525A.892.892,0,0,1,47,21.631V10.895a.889.889,0,1,1,1.777,0V21.631A.892.892,0,0,1,47.889,22.525Z" transform="translate(-36.634 -10)" fill="#026cd1"/>
  <path id="Path_1279" data-name="Path 1279" d="M73.889,59.526A.892.892,0,0,1,73,58.631V47.895a.889.889,0,1,1,1.777,0V58.631A.892.892,0,0,1,73.889,59.526Z" transform="translate(-54.933 -35.966)" fill="#026cd1"/>
  <path id="Path_1280" data-name="Path 1280" d="M73.889,14.175A.892.892,0,0,1,73,13.28V10.895a.889.889,0,1,1,1.777,0V13.28A.892.892,0,0,1,73.889,14.175Z" transform="translate(-54.933 -10)" fill="#026cd1"/>
  <path id="Path_1281" data-name="Path 1281" d="M67.554,26.157a3.579,3.579,0,1,1,3.554-3.579A3.567,3.567,0,0,1,67.554,26.157Zm0-5.368a1.789,1.789,0,1,0,1.777,1.789A1.783,1.783,0,0,0,67.554,20.789Z" transform="translate(-48.598 -16.316)" fill="#026cd1"/>
  <path id="Path_1282" data-name="Path 1282" d="M41.554,54.157a3.579,3.579,0,1,1,3.554-3.579A3.567,3.567,0,0,1,41.554,54.157Zm0-5.368a1.789,1.789,0,1,0,1.777,1.789A1.783,1.783,0,0,0,41.554,48.789Z" transform="translate(-30.299 -35.966)" fill="#026cd1"/>
  <path id="Path_1283" data-name="Path 1283" d="M15.554,36.157a3.579,3.579,0,1,1,3.554-3.579A3.567,3.567,0,0,1,15.554,36.157Zm0-5.368a1.789,1.789,0,1,0,1.777,1.789A1.783,1.783,0,0,0,15.554,30.789Z" transform="translate(-12 -23.334)" fill="#026cd1"/>
</svg>
