<svg xmlns="http://www.w3.org/2000/svg" width="17" height="17" viewBox="0 0 17 17">
  <g id="Layer_2" data-name="Layer 2" transform="translate(-2 -2)">
    <path id="Path_78" data-name="Path 78" d="M18.393,4.429H15.357V2.607A.607.607,0,0,0,14.75,2H6.25a.607.607,0,0,0-.607.607V4.429H2.607A.607.607,0,0,0,2,5.036V14.75a.607.607,0,0,0,.607.607H5.643v3.036A.607.607,0,0,0,6.25,19h8.5a.607.607,0,0,0,.607-.607V15.357h3.036A.607.607,0,0,0,19,14.75V5.036A.607.607,0,0,0,18.393,4.429ZM6.857,3.214h7.286V4.429H6.857Zm7.286,14.571H6.857V11.714h7.286Zm3.643-3.643H15.357V11.714h.607a.607.607,0,1,0,0-1.214H5.036a.607.607,0,0,0,0,1.214h.607v2.429H3.214v-8.5H17.786Z" fill="#222223"/>
    <path id="Path_79" data-name="Path 79" d="M22,10.607a.607.607,0,0,0,.607.607h1.214a.607.607,0,0,0,0-1.214H22.607A.607.607,0,0,0,22,10.607Z" transform="translate(-7.857 -3.143)" fill="#222223"/>
    <path id="Path_80" data-name="Path 80" d="M16.25,20H12.607a.607.607,0,0,0,0,1.214H16.25a.607.607,0,0,0,0-1.214Z" transform="translate(-3.929 -7.071)" fill="#222223"/>
    <path id="Path_81" data-name="Path 81" d="M16.25,24H12.607a.607.607,0,1,0,0,1.214H16.25a.607.607,0,0,0,0-1.214Z" transform="translate(-3.929 -8.643)" fill="#222223"/>
  </g>
</svg>
