<svg xmlns="http://www.w3.org/2000/svg" width="19.792" height="19.792" viewBox="0 0 19.792 19.792">
  <path id="Sbu_icon" d="M24.793,9.251A4.255,4.255,0,0,0,20.542,5h0a4.257,4.257,0,0,0-4.178,3.422H13.421A4.257,4.257,0,0,0,9.254,5h0a4.251,4.251,0,0,0-.829,8.42v2.951a4.251,4.251,0,1,0,5,5h2.951a4.251,4.251,0,1,0,5-5V13.42a4.257,4.257,0,0,0,3.422-4.169ZM20.539,6.759h0a2.492,2.492,0,1,1-2.492,2.492,2.492,2.492,0,0,1,2.492-2.492ZM6.76,9.251A2.494,2.494,0,0,1,9.251,6.759h0A2.492,2.492,0,1,1,6.76,9.251ZM9.251,23.032a2.493,2.493,0,1,1,0-4.985h0a2.493,2.493,0,1,1,0,4.985Zm7.143-3.422h-3a4.26,4.26,0,0,0-3.217-3.217v-3A4.26,4.26,0,0,0,13.4,10.181h3A4.26,4.26,0,0,0,19.611,13.4v3a4.26,4.26,0,0,0-3.217,3.217Zm6.639.93a2.492,2.492,0,1,1-2.494-2.494h0A2.494,2.494,0,0,1,23.033,20.541Z" transform="translate(-5.001 -5)" fill="#026cd1"/>
</svg>
